<svg xmlns="http://www.w3.org/2000/svg" version="1.1" width="100%" height="100%" viewBox="0 0 64 64">
    <path d="M3 30.04c1.24-0.03 2.25-0.36 3.04-0.99 0.78-0.63 1.3-1.5 1.56-2.6 0.26-1.1 0.4-2.98 0.41-5.65 0.02-2.66 0.07-4.42 0.14-5.26 0.14-1.34 0.42-2.42 0.81-3.23 0.4-0.81 0.88-1.46 1.46-1.95 0.58-0.49 1.32-0.86 2.23-1.11 0.61-0.16 1.61-0.24 3-0.24l1.35 0 0 3.76 -0.75 0c-1.68 0-2.79 0.3-3.34 0.9 -0.55 0.6-0.82 1.94-0.82 4.01 0 4.18-0.09 6.82-0.27 7.92 -0.29 1.71-0.79 3.02-1.49 3.95 -0.7 0.93-1.8 1.75-3.3 2.47 1.77 0.73 3.06 1.86 3.86 3.36 0.8 1.51 1.2 3.98 1.2 7.41 0 3.11 0.03 4.96 0.1 5.55 0.13 1.09 0.46 1.84 0.98 2.27 0.52 0.43 1.55 0.65 3.08 0.65l0.75 0 0 3.76 -1.35 0c-1.58 0-2.72-0.13-3.43-0.38 -1.03-0.37-1.89-0.96-2.56-1.78 -0.68-0.82-1.12-1.86-1.32-3.12 -0.2-1.26-0.31-3.33-0.33-6.2 -0.02-2.87-0.15-4.86-0.41-5.96 -0.26-1.1-0.78-1.97-1.56-2.61 -0.78-0.64-1.79-0.97-3.03-1l0-3.9Z" fill="#707070" />
    <path d="M61 30.04c-1.24-0.03-2.25-0.36-3.03-0.99 -0.78-0.63-1.3-1.5-1.56-2.6 -0.26-1.1-0.39-2.98-0.41-5.65 -0.02-2.66-0.06-4.42-0.14-5.26 -0.14-1.34-0.41-2.42-0.81-3.23 -0.39-0.81-0.88-1.46-1.46-1.95 -0.58-0.49-1.32-0.86-2.22-1.11 -0.61-0.16-1.61-0.24-3-0.24l-1.35 0 0 3.76 0.75 0c1.68 0 2.79 0.3 3.34 0.9 0.55 0.6 0.82 1.94 0.82 4.01 0 4.18 0.09 6.82 0.27 7.92 0.29 1.71 0.79 3.02 1.49 3.95 0.7 0.93 1.8 1.75 3.3 2.47 -1.77 0.73-3.06 1.86-3.86 3.36 -0.8 1.51-1.2 3.98-1.2 7.41 0 3.11-0.03 4.96-0.1 5.55 -0.13 1.09-0.46 1.84-0.98 2.27 -0.52 0.43-1.55 0.65-3.08 0.65l-0.75 0 0 3.76 1.35 0c1.58 0 2.72-0.13 3.43-0.38 1.03-0.37 1.89-0.96 2.56-1.78 0.68-0.82 1.12-1.86 1.32-3.12 0.2-1.26 0.31-3.33 0.33-6.2 0.02-2.87 0.15-4.86 0.41-5.96 0.26-1.1 0.78-1.97 1.56-2.61 0.78-0.64 1.79-0.97 3.04-1l0-3.9Z" fill="#707070" />
    <path d="M22.63 47l0-30 3.97 0 0 26.46 14.77 0 0 3.54 -18.74 0Z" fill="#337ab7" />
</svg>
