<svg xmlns="http://www.w3.org/2000/svg" version="1.1" width="100%" height="100%" viewBox="0 0 16 16">
	<g fill="#000000">
		<path d="M0.75 7.51c0.31-0.01 0.56-0.09 0.76-0.25 0.2-0.16 0.33-0.37 0.39-0.65 0.07-0.28 0.1-0.74 0.1-1.41 0-0.66 0.02-1.1 0.03-1.31 0.04-0.33 0.11-0.6 0.2-0.81 0.1-0.2 0.22-0.36 0.37-0.49 0.14-0.12 0.33-0.21 0.56-0.28 0.15-0.04 0.4-0.06 0.75-0.06l0.34 0 0 0.94 -0.19 0c-0.42 0-0.7 0.08-0.83 0.23 -0.14 0.15-0.2 0.49-0.2 1 0 1.05-0.02 1.71-0.07 1.98 -0.07 0.43-0.2 0.76-0.37 0.99 -0.17 0.23-0.45 0.44-0.82 0.62 0.44 0.18 0.77 0.47 0.97 0.84 0.2 0.38 0.3 1 0.3 1.85 0 0.78 0.01 1.24 0.03 1.39 0.03 0.27 0.12 0.46 0.25 0.57 0.13 0.11 0.39 0.16 0.77 0.16l0.19 0 0 0.94 -0.34 0c-0.39 0-0.68-0.03-0.86-0.09 -0.26-0.09-0.47-0.24-0.64-0.44 -0.17-0.2-0.28-0.46-0.33-0.78 -0.05-0.31-0.08-0.83-0.08-1.55 0-0.72-0.04-1.22-0.1-1.49 -0.06-0.28-0.19-0.49-0.39-0.65 -0.19-0.16-0.45-0.24-0.76-0.25l0-0.97 0-0.01Z" />
		<path d="M15.25 7.51c-0.31-0.01-0.56-0.09-0.76-0.25 -0.19-0.16-0.32-0.37-0.39-0.65 -0.06-0.28-0.1-0.74-0.1-1.41 0-0.66-0.01-1.1-0.04-1.31 -0.04-0.33-0.1-0.6-0.2-0.81 -0.1-0.2-0.22-0.36-0.36-0.49 -0.14-0.12-0.33-0.21-0.56-0.28 -0.15-0.04-0.4-0.06-0.75-0.06l-0.34 0 0 0.94 0.19 0c0.42 0 0.7 0.08 0.84 0.23 0.14 0.15 0.21 0.49 0.21 1 0 1.05 0.02 1.71 0.07 1.98 0.07 0.43 0.2 0.76 0.37 0.99 0.18 0.23 0.45 0.44 0.83 0.62 -0.44 0.18-0.76 0.47-0.96 0.84 -0.2 0.38-0.3 1-0.3 1.85 0 0.78-0.01 1.24-0.02 1.39 -0.03 0.27-0.11 0.46-0.24 0.57 -0.13 0.11-0.39 0.16-0.77 0.16l-0.19 0 0 0.94 0.34 0c0.4 0 0.68-0.03 0.86-0.09 0.26-0.09 0.47-0.24 0.64-0.44 0.17-0.2 0.28-0.46 0.33-0.78 0.05-0.31 0.08-0.83 0.08-1.55 0.01-0.72 0.04-1.22 0.1-1.49 0.07-0.28 0.2-0.49 0.39-0.65 0.2-0.16 0.45-0.24 0.76-0.25l0-0.97 0-0.01Z" />
		<path d="M5.66 11.75l0-7.5 0.99 0 0 6.62 3.69 0 0 0.89 -4.68 0Z" />
	</g>
</svg>
